<svg xmlns="http://www.w3.org/2000/svg" viewBox="0 0 48 48" width="48" height="48">
    <!-- Light Background Box with Rounded Corners -->
    <rect width="48" height="48" rx="12" fill="#F0F5FA"/>
    
    <!-- Car Icon Centered and Scaled -->
    <g transform="translate(6, 6) scale(1.5)">
        <!-- Fast/Route Accent Lines (Yellow) -->
        <path d="M2 9h4" stroke="#eab308" stroke-width="2.5" stroke-linecap="round"/>
        <path d="M4 5h3" stroke="#eab308" stroke-width="2.5" stroke-linecap="round"/>
        
        <!-- Modern Car Silhouette (Primary Blue) -->
        <path d="M19 17h2c.6 0 1-.4 1-1v-3c0-.9-.7-1.7-1.5-1.9C18.7 10.6 16 10 16 10s-1.3-1.4-2.2-2.3c-.5-.4-1.1-.7-1.8-.7H5c-.6 0-1.1.4-1.4.9l-1.4 2.9A3.7 3.7 0 0 0 2 12v4c0 .6.4 1 1 1h2" stroke="#004B87" stroke-width="2" stroke-linecap="round" stroke-linejoin="round"/>
        
        <!-- Wheels -->
        <circle cx="7" cy="17" r="2" stroke="#004B87" stroke-width="2"/>
        <circle cx="17" cy="17" r="2" stroke="#004B87" stroke-width="2"/>
    </g>
</svg>
